<svg width="21" height="20" viewBox="0 0 21 20" fill="none" xmlns="http://www.w3.org/2000/svg">
<path d="M10.3686 17L10.0496 16.64C9.85017 16.44 5.18457 10.92 5.18457 7.60002C5.18457 4.72002 7.49743 2.40002 10.3686 2.40002C13.2397 2.40002 15.5526 4.72002 15.5526 7.60002C15.5526 10.92 10.887 16.44 10.6876 16.68L10.3686 17ZM10.3686 3.20002C7.93608 3.20002 5.98211 5.16002 5.98211 7.60002C5.98211 10.16 9.33177 14.48 10.3686 15.76C11.4054 14.48 14.755 10.16 14.755 7.60002C14.755 5.16002 12.8011 3.20002 10.3686 3.20002Z" fill="#FD5308"/>
<path d="M10.3688 9.59997C9.25229 9.59997 8.375 8.71997 8.375 7.59997C8.375 6.47998 9.25229 5.59998 10.3688 5.59998C11.4854 5.59998 12.3627 6.47998 12.3627 7.59997C12.3627 8.71997 11.4854 9.59997 10.3688 9.59997ZM10.3688 6.39998C9.69094 6.39998 9.17254 6.91998 9.17254 7.59997C9.17254 8.27997 9.69094 8.79997 10.3688 8.79997C11.0468 8.79997 11.5652 8.27997 11.5652 7.59997C11.5652 6.91998 11.0468 6.39998 10.3688 6.39998Z" fill="#FD5308"/>
</svg>
