<svg width="16" height="16" viewBox="0 0 16 16" fill="none" xmlns="http://www.w3.org/2000/svg">
<path d="M8 0.529999C3.875 0.529999 0.5 3.8975 0.5 8.045C0.5 11.795 3.245 14.9075 6.83 15.47V10.22H4.925V8.045H6.83V6.3875C6.83 4.505 7.9475 3.47 9.665 3.47C10.4825 3.47 11.3375 3.6125 11.3375 3.6125V5.465H10.3925C9.4625 5.465 9.17 6.0425 9.17 6.635V8.045H11.255L10.9175 10.22H9.17V15.47C10.9373 15.1909 12.5467 14.2891 13.7074 12.9275C14.8682 11.566 15.504 9.83423 15.5 8.045C15.5 3.8975 12.125 0.529999 8 0.529999Z" fill="white"/>
</svg>
