<svg width="18" height="18" viewBox="0 0 18 18" fill="none" xmlns="http://www.w3.org/2000/svg">
<path d="M8.99993 14.0625C6.86665 14.0625 5.13978 11.9984 4.98087 9.38282L2.03056 6.5327C1.64272 7.14091 1.28581 7.78392 0.997813 8.48704C0.933475 8.64612 0.899953 8.82189 0.899953 9.00014C0.899953 9.1784 0.933475 9.35417 0.997813 9.51325C2.52303 13.2331 5.54252 15.75 8.99993 15.75C9.75677 15.75 10.4869 15.6093 11.1906 15.3822L9.73117 13.9707C9.49015 14.0289 9.2454 14.0596 8.99993 14.0625ZM17.8261 16.105L14.7169 13.1013C15.6614 12.1063 16.4382 10.8866 17.002 9.5129C17.0664 9.35381 17.0999 9.17805 17.0999 8.99979C17.0999 8.82154 17.0664 8.64577 17.002 8.48669C15.4768 4.76681 12.4573 2.24997 8.99993 2.24997C7.55191 2.25216 6.12742 2.70783 4.85656 3.57536L1.2785 0.118447C1.23184 0.0730627 1.17849 0.0396161 1.12148 0.0200181C1.06448 0.000420138 1.00494 -0.00494499 0.946281 0.0042293C0.887618 0.0134036 0.830976 0.0369375 0.779592 0.0734861C0.728208 0.110035 0.683089 0.158882 0.646813 0.217236L0.0947203 1.10563C0.0214825 1.2234 -0.0113349 1.37271 0.00348584 1.52072C0.0183066 1.66873 0.0795518 1.80332 0.173751 1.89489L16.7214 17.8815C16.768 17.9269 16.8214 17.9603 16.8784 17.9799C16.9354 17.9995 16.9949 18.0049 17.0536 17.9957C17.1122 17.9865 17.1689 17.963 17.2203 17.9265C17.2716 17.8899 17.3168 17.8411 17.353 17.7827L17.9054 16.8943C17.9786 16.7765 18.0114 16.6272 17.9965 16.4791C17.9816 16.3311 17.9203 16.1966 17.8261 16.105ZM12.659 11.1129L11.5537 10.0448C11.6468 9.70853 11.6961 9.35578 11.6999 8.99997C11.7054 8.47905 11.6131 7.96377 11.4304 7.49554C11.2476 7.02731 10.9796 6.61917 10.6478 6.30391C10.316 5.98865 9.92968 5.77506 9.51986 5.68028C9.11004 5.58551 8.68815 5.6122 8.28808 5.75821C8.45768 6.04547 8.54942 6.39295 8.54993 6.74997C8.54573 6.86877 8.53121 6.98665 8.50661 7.10153L6.43634 5.10149C7.15549 4.35028 8.06273 3.93834 8.99993 3.93747C9.53186 3.9371 10.0586 4.06779 10.5501 4.32208C11.0416 4.57636 11.4882 4.94925 11.8644 5.41942C12.2405 5.88959 12.5388 6.44782 12.7422 7.0622C12.9457 7.67658 13.0502 8.33505 13.0499 8.99997C13.0499 9.7604 12.9011 10.4691 12.659 11.1132V11.1129Z" fill="#2A2A2A" fill-opacity="0.6"/>
</svg>
