<svg width="22" height="22" viewBox="0 0 22 22" fill="none" xmlns="http://www.w3.org/2000/svg">
<path d="M20.6674 9.1625L18.9349 10.685L17.8699 9.62L19.6774 8.03L17.9074 4.97L15.3274 5.84C14.7231 5.33695 14.0386 4.93892 13.3024 4.6625L12.7699 2H9.22993L8.69742 4.6625C7.95538 4.93119 7.26713 5.32992 6.66492 5.84L4.09242 4.97L2.32242 8.03L4.36242 9.8225C4.22367 10.5988 4.22367 11.3937 4.36242 12.17L2.32242 13.97L4.09242 17.03L6.67242 16.16C7.27678 16.663 7.96129 17.0611 8.69742 17.3375L9.22993 20H10.2499V21.5H9.22993C8.88307 21.4997 8.54704 21.3792 8.27902 21.1591C8.011 20.9389 7.82756 20.6327 7.75992 20.2925L7.37742 18.4025C7.03787 18.2369 6.70965 18.049 6.39492 17.84L4.57242 18.455C4.41745 18.5054 4.2554 18.5308 4.09242 18.53C3.82897 18.5318 3.5698 18.4633 3.34171 18.3314C3.11361 18.1996 2.92485 18.0092 2.79492 17.78L1.02492 14.72C0.849865 14.4193 0.784814 14.067 0.840912 13.7236C0.89701 13.3801 1.07077 13.0669 1.33242 12.8375L2.77242 11.5775C2.75742 11.3825 2.74992 11.195 2.74992 11C2.74992 10.805 2.76492 10.6175 2.77992 10.43L1.33242 9.1625C1.07077 8.93309 0.89701 8.61985 0.840912 8.27642C0.784814 7.93299 0.849865 7.58074 1.02492 7.28L2.79492 4.22C2.92485 3.9908 3.11361 3.80044 3.34171 3.66859C3.5698 3.53675 3.82897 3.46819 4.09242 3.47C4.2554 3.46925 4.41745 3.49457 4.57242 3.545L6.38742 4.16C6.70472 3.95098 7.03544 3.76307 7.37742 3.5975L7.75992 1.7075C7.82756 1.36731 8.011 1.06107 8.27902 0.84091C8.54704 0.620751 8.88307 0.500279 9.22993 0.5H12.7699C13.1168 0.500279 13.4528 0.620751 13.7208 0.84091C13.9888 1.06107 14.1723 1.36731 14.2399 1.7075L14.6224 3.5975C14.962 3.76311 15.2902 3.95102 15.6049 4.16L17.4274 3.545C17.5824 3.49457 17.7444 3.46925 17.9074 3.47C18.1709 3.46819 18.43 3.53675 18.6581 3.66859C18.8862 3.80044 19.075 3.9908 19.2049 4.22L20.9749 7.28C21.15 7.58074 21.215 7.93299 21.1589 8.27642C21.1028 8.61985 20.9291 8.93309 20.6674 9.1625Z" fill="#F24E1E"/>
</svg>
